<svg xmlns="http://www.w3.org/2000/svg" width="760" height="302" viewBox="0 0 760 302">
<rect width="100%" height="100%" fill="#071016"/>
<text x="24" y="32" fill="#d7fbe8" font-family="Inter, Arial, sans-serif" font-size="18" font-weight="700">Supported Questions</text>
<text x="640" y="32" fill="#7f93a4" font-family="Inter, Arial, sans-serif" font-size="12">rows</text>
<text x="24" y="73" fill="#b7c7d4" font-family="Inter, Arial, sans-serif" font-size="13">related_thread</text>
<rect x="230" y="56" width="410" height="24" rx="3" fill="#10202b"/>
<rect x="230" y="56" width="410" height="24" rx="3" fill="#5ee6a8"/>
<text x="656" y="73" fill="#f4f7fb" font-family="Inter, Arial, sans-serif" font-size="13">20</text>
<text x="24" y="107" fill="#b7c7d4" font-family="Inter, Arial, sans-serif" font-size="13">why_moving</text>
<rect x="230" y="90" width="410" height="24" rx="3" fill="#10202b"/>
<rect x="230" y="90" width="246" height="24" rx="3" fill="#5ee6a8"/>
<text x="656" y="107" fill="#f4f7fb" font-family="Inter, Arial, sans-serif" font-size="13">12</text>
<text x="24" y="141" fill="#b7c7d4" font-family="Inter, Arial, sans-serif" font-size="13">evidence_support</text>
<rect x="230" y="124" width="410" height="24" rx="3" fill="#10202b"/>
<rect x="230" y="124" width="205" height="24" rx="3" fill="#5ee6a8"/>
<text x="656" y="141" fill="#f4f7fb" font-family="Inter, Arial, sans-serif" font-size="13">10</text>
<text x="24" y="175" fill="#b7c7d4" font-family="Inter, Arial, sans-serif" font-size="13">what_changed</text>
<rect x="230" y="158" width="410" height="24" rx="3" fill="#10202b"/>
<rect x="230" y="158" width="102" height="24" rx="3" fill="#5ee6a8"/>
<text x="656" y="175" fill="#f4f7fb" font-family="Inter, Arial, sans-serif" font-size="13">5</text>
<text x="24" y="209" fill="#b7c7d4" font-family="Inter, Arial, sans-serif" font-size="13">where_concentrated</text>
<rect x="230" y="192" width="410" height="24" rx="3" fill="#10202b"/>
<rect x="230" y="192" width="102" height="24" rx="3" fill="#5ee6a8"/>
<text x="656" y="209" fill="#f4f7fb" font-family="Inter, Arial, sans-serif" font-size="13">5</text>
<text x="24" y="243" fill="#b7c7d4" font-family="Inter, Arial, sans-serif" font-size="13">sources_driving</text>
<rect x="230" y="226" width="410" height="24" rx="3" fill="#10202b"/>
<rect x="230" y="226" width="41" height="24" rx="3" fill="#5ee6a8"/>
<text x="656" y="243" fill="#f4f7fb" font-family="Inter, Arial, sans-serif" font-size="13">2</text>
<text x="24" y="277" fill="#b7c7d4" font-family="Inter, Arial, sans-serif" font-size="13">subthreads_forming</text>
<rect x="230" y="260" width="410" height="24" rx="3" fill="#10202b"/>
<rect x="230" y="260" width="20" height="24" rx="3" fill="#5ee6a8"/>
<text x="656" y="277" fill="#f4f7fb" font-family="Inter, Arial, sans-serif" font-size="13">1</text>
</svg>
